<svg width="40" height="40" viewBox="0 0 40 40" fill="none" xmlns="http://www.w3.org/2000/svg">
<g clip-path="url(#clip0_1_14)">
<path d="M8.88821 21.5608L26.6887 39.361C27.1004 39.773 27.65 40 28.236 40C28.822 40 29.3716 39.773 29.7833 39.361L31.0942 38.0504C31.9472 37.1964 31.9472 35.8085 31.0942 34.9558L16.1467 20.0083L31.1108 5.04417C31.5225 4.63214 31.7498 4.08288 31.7498 3.49719C31.7498 2.91085 31.5225 2.36159 31.1108 1.94924L29.7999 0.639004C29.3879 0.226975 28.8386 -1.50043e-05 28.2526 -1.49531e-05C27.6666 -1.49018e-05 27.117 0.226975 26.7053 0.639004L8.88821 18.4555C8.47553 18.8688 8.24887 19.4206 8.25017 20.0073C8.24887 20.5962 8.47553 21.1478 8.88821 21.5608Z" fill="white"/>
</g>
<defs>
<clipPath id="clip0_1_14">
<rect width="40" height="40" fill="white" transform="translate(40 40) rotate(180)"/>
</clipPath>
</defs>
</svg>
