<svg width="40" height="41" viewBox="0 0 40 41" fill="none" xmlns="http://www.w3.org/2000/svg">
<g clip-path="url(#clip0_1_18)">
<path d="M31.112 19.3313L13.3115 1.53111C12.8998 1.11908 12.3502 0.892091 11.7642 0.89209C11.1781 0.89209 10.6286 1.11908 10.2169 1.53111L8.90597 2.84167C8.05297 3.69564 8.05297 5.0836 8.90597 5.93628L23.8535 20.8838L8.88938 35.8479C8.47768 36.2599 8.25036 36.8092 8.25036 37.3949C8.25036 37.9812 8.47767 38.5305 8.88938 38.9428L10.2003 40.2531C10.6123 40.6651 11.1616 40.8921 11.7476 40.8921C12.3336 40.8921 12.8832 40.6651 13.2949 40.2531L31.112 22.4366C31.5246 22.0233 31.7513 21.4714 31.75 20.8848C31.7513 20.2958 31.5246 19.7443 31.112 19.3313Z" fill="white"/>
</g>
<defs>
<clipPath id="clip0_1_18">
<rect width="40" height="40" fill="white" transform="translate(0.00012207 0.89209)"/>
</clipPath>
</defs>
</svg>
